<mxfile host="app.diagrams.net" modified="2024-04-12T00:48:09.303Z" agent="Mozilla/5.0 (Macintosh; Intel Mac OS X 10_15_7) AppleWebKit/537.36 (KHTML, like Gecko) Chrome/123.0.0.0 Safari/537.36" etag="jN0QMEAi4B7yE8ZQvHPB" version="24.0.5" type="device">
  <diagram name="Trang-1" id="1jHxu5YLisz7EWN2pRTN">
    <mxGraphModel dx="1314" dy="832" grid="1" gridSize="10" guides="1" tooltips="1" connect="1" arrows="1" fold="1" page="1" pageScale="1" pageWidth="827" pageHeight="1169" math="0" shadow="0">
      <root>
        <mxCell id="0" />
        <mxCell id="1" parent="0" />
        <mxCell id="W3OqyBnTHhcpD9u-V25L-1" value="&lt;font style=&quot;font-size: 15px;&quot;&gt;extract image from video&lt;/font&gt;" style="rounded=0;whiteSpace=wrap;html=1;strokeWidth=1;" vertex="1" parent="1">
          <mxGeometry x="270" y="50" width="160" height="80" as="geometry" />
        </mxCell>
        <mxCell id="W3OqyBnTHhcpD9u-V25L-2" value="&lt;font style=&quot;font-size: 14px;&quot;&gt;Resize image to 160x160&lt;/font&gt;" style="rounded=0;whiteSpace=wrap;html=1;strokeWidth=1;" vertex="1" parent="1">
          <mxGeometry x="270" y="210" width="160" height="90" as="geometry" />
        </mxCell>
        <mxCell id="W3OqyBnTHhcpD9u-V25L-3" value="&lt;font style=&quot;font-size: 14px;&quot;&gt;Feed to facenet and extract embedding vector&lt;/font&gt;" style="rounded=0;whiteSpace=wrap;html=1;strokeWidth=1;" vertex="1" parent="1">
          <mxGeometry x="270" y="380" width="160" height="100" as="geometry" />
        </mxCell>
        <mxCell id="W3OqyBnTHhcpD9u-V25L-4" value="&lt;font style=&quot;font-size: 14px;&quot;&gt;Train embedding vectors with SVM classifier&lt;/font&gt;" style="rounded=0;whiteSpace=wrap;html=1;strokeWidth=1;" vertex="1" parent="1">
          <mxGeometry x="270" y="540" width="160" height="110" as="geometry" />
        </mxCell>
        <mxCell id="W3OqyBnTHhcpD9u-V25L-5" value="MTCNN" style="endArrow=classic;html=1;rounded=0;exitX=0.5;exitY=1;exitDx=0;exitDy=0;entryX=0.5;entryY=0;entryDx=0;entryDy=0;" edge="1" parent="1" source="W3OqyBnTHhcpD9u-V25L-1" target="W3OqyBnTHhcpD9u-V25L-2">
          <mxGeometry y="20" width="50" height="50" relative="1" as="geometry">
            <mxPoint x="560" y="270" as="sourcePoint" />
            <mxPoint x="610" y="220" as="targetPoint" />
            <mxPoint as="offset" />
          </mxGeometry>
        </mxCell>
        <mxCell id="W3OqyBnTHhcpD9u-V25L-6" value="" style="endArrow=classic;html=1;rounded=0;exitX=0.5;exitY=1;exitDx=0;exitDy=0;entryX=0.5;entryY=0;entryDx=0;entryDy=0;" edge="1" parent="1">
          <mxGeometry width="50" height="50" relative="1" as="geometry">
            <mxPoint x="349.5" y="300" as="sourcePoint" />
            <mxPoint x="349.5" y="380" as="targetPoint" />
          </mxGeometry>
        </mxCell>
        <mxCell id="W3OqyBnTHhcpD9u-V25L-7" value="" style="endArrow=classic;html=1;rounded=0;exitX=0.5;exitY=1;exitDx=0;exitDy=0;" edge="1" parent="1">
          <mxGeometry width="50" height="50" relative="1" as="geometry">
            <mxPoint x="349.5" y="480" as="sourcePoint" />
            <mxPoint x="350" y="540" as="targetPoint" />
          </mxGeometry>
        </mxCell>
        <mxCell id="W3OqyBnTHhcpD9u-V25L-8" value="&lt;font style=&quot;font-size: 14px;&quot;&gt;Save model to local&lt;/font&gt;" style="rounded=0;whiteSpace=wrap;html=1;strokeWidth=1;" vertex="1" parent="1">
          <mxGeometry x="580" y="540" width="160" height="110" as="geometry" />
        </mxCell>
        <mxCell id="W3OqyBnTHhcpD9u-V25L-9" value="" style="endArrow=classic;html=1;rounded=0;exitX=1;exitY=0.5;exitDx=0;exitDy=0;entryX=0;entryY=0.5;entryDx=0;entryDy=0;" edge="1" parent="1" source="W3OqyBnTHhcpD9u-V25L-4" target="W3OqyBnTHhcpD9u-V25L-8">
          <mxGeometry width="50" height="50" relative="1" as="geometry">
            <mxPoint x="450" y="585" as="sourcePoint" />
            <mxPoint x="450.5" y="645" as="targetPoint" />
          </mxGeometry>
        </mxCell>
        <mxCell id="W3OqyBnTHhcpD9u-V25L-12" value="&lt;div style=&quot;text-align: justify; font-size: 17px;&quot;&gt;&lt;span style=&quot;background-color: initial;&quot;&gt;&amp;nbsp; &amp;nbsp; &amp;nbsp; &amp;nbsp;Image need to&amp;nbsp; &amp;nbsp; &amp;nbsp; &amp;nbsp; &amp;nbsp; &amp;nbsp; &amp;nbsp; &amp;nbsp; recognize&lt;/span&gt;&lt;font style=&quot;font-size: 17px;&quot; face=&quot;Google Sans, arial, sans-serif&quot; color=&quot;#040c28&quot;&gt;&lt;span style=&quot;background-color: rgb(255, 255, 255);&quot;&gt;&amp;nbsp;&lt;/span&gt;&lt;/font&gt;&lt;/div&gt;" style="rounded=0;whiteSpace=wrap;html=1;" vertex="1" parent="1">
          <mxGeometry x="575" y="380" width="170" height="95" as="geometry" />
        </mxCell>
        <mxCell id="W3OqyBnTHhcpD9u-V25L-13" value="" style="endArrow=classic;html=1;rounded=0;exitX=0.5;exitY=1;exitDx=0;exitDy=0;entryX=0.5;entryY=0;entryDx=0;entryDy=0;" edge="1" parent="1" source="W3OqyBnTHhcpD9u-V25L-12" target="W3OqyBnTHhcpD9u-V25L-8">
          <mxGeometry width="50" height="50" relative="1" as="geometry">
            <mxPoint x="620" y="429.5" as="sourcePoint" />
            <mxPoint x="770" y="429.5" as="targetPoint" />
          </mxGeometry>
        </mxCell>
        <mxCell id="W3OqyBnTHhcpD9u-V25L-14" value="&lt;div style=&quot;text-align: left;&quot;&gt;&lt;font style=&quot;font-size: 14px;&quot;&gt;Image and label&lt;/font&gt;&lt;/div&gt;" style="rounded=0;whiteSpace=wrap;html=1;" vertex="1" parent="1">
          <mxGeometry x="570" y="720" width="170" height="95" as="geometry" />
        </mxCell>
        <mxCell id="W3OqyBnTHhcpD9u-V25L-15" value="" style="endArrow=classic;html=1;rounded=0;exitX=0.5;exitY=1;exitDx=0;exitDy=0;entryX=0.5;entryY=0;entryDx=0;entryDy=0;" edge="1" parent="1" target="W3OqyBnTHhcpD9u-V25L-14">
          <mxGeometry width="50" height="50" relative="1" as="geometry">
            <mxPoint x="654.5" y="650" as="sourcePoint" />
            <mxPoint x="654.5" y="715" as="targetPoint" />
          </mxGeometry>
        </mxCell>
      </root>
    </mxGraphModel>
  </diagram>
</mxfile>
